# xmcd
#
# Track frame offsets:
#	150
#	15757
#	28145
#	42107
#	55060
#	69860
#	85147
#	102897
#	118782
#	136380
#
# Disc length: 2083 seconds
#
# Revision: 0
# Processed by: cddbd v1.5.2PL0 Copyright (c) Steve Scherf et al.
# Submitted via: audiograbber 1.83.01
#
DISCID=7408210a
DTITLE=Dawn Sears - Nothin' But Good
DYEAR=1994
DGENRE=Country
TTITLE0=Runaway Train
TTITLE1=Close Up The Honky Tonks
TTITLE2=That's Where I Wanna Take Our Love
TTITLE3=Nothin' But Good
TTITLE4=No Relief In Sight
TTITLE5=Uh Oh (Here Comes Love)
TTITLE6=Planet Of Love
TTITLE7=It Was Too Late
TTITLE8=If I Didn't Have You In My World
TTITLE9=Little Orphan Annie
EXTD=
EXTT0=
EXTT1=
EXTT2=
EXTT3=
EXTT4=
EXTT5=
EXTT6=
EXTT7=
EXTT8=
EXTT9=
PLAYORDER=
